<?xml version="1.0" encoding="UTF-8" standalone="no"?>
<!-- Created with Inkscape (http://www.inkscape.org/) -->

<svg
   xmlns:dc="http://purl.org/dc/elements/1.1/"
   xmlns:cc="http://creativecommons.org/ns#"
   xmlns:rdf="http://www.w3.org/1999/02/22-rdf-syntax-ns#"
   xmlns:svg="http://www.w3.org/2000/svg"
   xmlns="http://www.w3.org/2000/svg"
   xmlns:sodipodi="http://sodipodi.sourceforge.net/DTD/sodipodi-0.dtd"
   xmlns:inkscape="http://www.inkscape.org/namespaces/inkscape"
   id="svg2"
   version="1.1"
   inkscape:version="0.91 r13725"
   xml:space="preserve"
   width="452"
   height="452"
   viewBox="0 0 452 452.00001"
   sodipodi:docname="palava-papagai-ohne-inneren-kreis.svg"><metadata
     id="metadata8"><rdf:RDF><cc:Work
         rdf:about=""><dc:format>image/svg+xml</dc:format><dc:type
           rdf:resource="http://purl.org/dc/dcmitype/StillImage" /><dc:title></dc:title></cc:Work></rdf:RDF></metadata><defs
     id="defs6"><clipPath
       clipPathUnits="userSpaceOnUse"
       id="clipPath22"><path
         d="m 120,781.89 353,0 0,-353 -353,0 0,353 z"
         id="path24"
         inkscape:connector-curvature="0" /></clipPath><clipPath
       clipPathUnits="userSpaceOnUse"
       id="clipPath28"><path
         d="m 472.535,605.284 c 0,-97.179 -78.777,-175.957 -175.953,-175.957 -97.18,0 -175.957,78.778 -175.957,175.957 0,97.176 78.777,175.957 175.957,175.957 97.176,0 175.953,-78.781 175.953,-175.957 z"
         id="path30"
         inkscape:connector-curvature="0" /></clipPath><clipPath
       clipPathUnits="userSpaceOnUse"
       id="clipPath38"><path
         d="m 111,403 372,0 0,403 -372,0 0,-403 z"
         id="path40"
         inkscape:connector-curvature="0" /></clipPath><clipPath
       clipPathUnits="userSpaceOnUse"
       id="clipPath84"><path
         d="m 208,783 236,0 0,-219 -236,0 0,219 z"
         id="path86"
         inkscape:connector-curvature="0" /></clipPath><clipPath
       clipPathUnits="userSpaceOnUse"
       id="clipPath90"><path
         d="m 226.305,727.402 199.918,54.207 c 9.445,2.563 17.734,-7.468 17.734,-16.75 l 0,-183.031 c 0,-9.281 -8.004,-17.926 -17.734,-16.75 l -199.918,24.133 c -9.731,1.176 -17.739,7.469 -17.739,16.75 l 0,104.691 c 0,9.278 8.293,14.188 17.739,16.75 z"
         id="path92"
         inkscape:connector-curvature="0" /></clipPath><clipPath
       clipPathUnits="userSpaceOnUse"
       id="clipPath100"><path
         d="m 318,414 178,0 0,285 -178,0 0,-285 z"
         id="path102"
         inkscape:connector-curvature="0" /></clipPath><clipPath
       clipPathUnits="userSpaceOnUse"
       id="clipPath140"><path
         d="m 356,573 45,0 0,-43 -45,0 0,43 z"
         id="path142"
         inkscape:connector-curvature="0" /></clipPath><clipPath
       clipPathUnits="userSpaceOnUse"
       id="clipPath146"><path
         d="m 363.125,572.375 37.344,-3.543 -3.543,-38.164 -40.071,6.816 6.27,34.891 z"
         id="path148"
         inkscape:connector-curvature="0" /></clipPath><clipPath
       clipPathUnits="userSpaceOnUse"
       id="clipPath156"><path
         d="m 370,554 34,0 0,22 -34,0 0,-22 z"
         id="path158"
         inkscape:connector-curvature="0" /></clipPath></defs><sodipodi:namedview
     pagecolor="#ffffff"
     bordercolor="#666666"
     borderopacity="1"
     objecttolerance="10"
     gridtolerance="10"
     guidetolerance="10"
     inkscape:pageopacity="0"
     inkscape:pageshadow="2"
     inkscape:window-width="1728"
     inkscape:window-height="856"
     id="namedview4"
     showgrid="false"
     inkscape:zoom="0.44851479"
     inkscape:cx="-105.41667"
     inkscape:cy="265.69633"
     inkscape:window-x="0"
     inkscape:window-y="0"
     inkscape:window-maximized="0"
     inkscape:current-layer="g10"
     fit-margin-top="0"
     fit-margin-left="0"
     fit-margin-right="0"
     fit-margin-bottom="0" /><g
     id="g10"
     inkscape:groupmode="layer"
     inkscape:label="palava-papagai_03"
     transform="matrix(1.25,0,0,-1.25,-144.725,982.6025)"><g
       id="g12"
       transform="matrix(0.99639029,0,0,0.99639029,1.070567,2.184891)"><path
         d="m 478.035,605.284 c 0,-100.215 -81.238,-181.457 -181.453,-181.457 -100.215,0 -181.457,81.242 -181.457,181.457 0,100.215 81.242,181.453 181.457,181.453 100.215,0 181.453,-81.238 181.453,-181.453 z"
         style="fill:#2c5aa0;fill-opacity:1;fill-rule:nonzero;stroke:none"
         id="path14"
         inkscape:connector-curvature="0" /><path
         d="m 472.535,605.284 c 0,-97.179 -78.777,-175.957 -175.953,-175.957 -97.18,0 -175.957,78.778 -175.957,175.957 0,97.176 78.777,175.957 175.957,175.957 97.176,0 175.953,-78.781 175.953,-175.957 z"
         style="fill:#ffffff;fill-opacity:1;fill-rule:nonzero;stroke:none"
         id="path16"
         inkscape:connector-curvature="0" /></g><g
       id="g18"><g
         id="g20"
         clip-path="url(#clipPath22)"><g
           id="g26"
           clip-path="url(#clipPath28)"><g
             id="g32"
             transform="translate(0,-0.110229)"><g
               id="g34"><g
                 id="g36"
                 clip-path="url(#clipPath38)"><g
                   id="g42"><path
                     d="m 219.891,736.047 241.218,69.258 c 11.395,3.273 21.399,-9.543 21.399,-21.399 l 0,-257.488 c 0,-11.856 -9.836,-24.012 -21.399,-21.398 l -241.218,54.472 c -11.567,2.61 -21.403,9.543 -21.403,21.399 l 0,133.754 c 0,11.855 10.008,18.128 21.403,21.402 z"
                     style="fill:#2c5aa0;fill-opacity:1;fill-rule:nonzero;stroke:none"
                     id="path44"
                     inkscape:connector-curvature="0" /><g
                     id="g46"
                     transform="matrix(1,0,0,-1,0,842)"><path
                       d="M 226.305,114.598 426.223,60.391 c 9.445,-2.563 17.734,7.468 17.734,16.75 l 0,183.031 c 0,9.281 -8.004,17.926 -17.734,16.75 L 226.305,252.789 c -9.731,-1.176 -17.739,-7.469 -17.739,-16.75 l 0,-104.691 c 0,-9.278 8.293,-14.188 17.739,-16.75 z"
                       style="fill:#ffffff;fill-opacity:1;fill-rule:nonzero;stroke:#ffffff;stroke-width:6.76110888;stroke-linecap:butt;stroke-linejoin:miter;stroke-miterlimit:4;stroke-dasharray:none;stroke-opacity:1"
                       id="path48"
                       inkscape:connector-curvature="0" /></g><path
                     d="m 308.734,721.051 c 0.149,-0.696 3.129,-3.571 5.297,-5.508 3.629,-4.047 5.199,-8.727 5.918,-13.934 0.305,-4.371 -0.383,-9.621 -2.273,-12.386 -2.582,-3.657 -5.156,-6.055 -9.629,-8.883 0.547,3.547 0.5,6.926 -0.438,9.113 -1.836,4.352 -5.195,8.145 -12.211,13.32 -2.375,1.817 -0.093,5.094 1.497,7.653 3.667,3.344 5.41,5.941 8.777,8.746 0.89,0.769 1.668,2.23 3.062,1.879 z"
                     style="fill:#2c5aa0;fill-opacity:1;fill-rule:nonzero;stroke:none"
                     id="path50"
                     inkscape:connector-curvature="0" /><path
                     d="m 294.77,697.418 c 0.757,-2.066 1.257,-5.496 3.714,-8.68 1.696,-2.058 4.407,-3.074 8.696,-4.488 -0.45,-5.457 -4.668,-7.02 -10.606,-8.41 -5.488,-0.43 -10.871,0.187 -12.972,6.078 -1.403,4.703 0.171,6.578 1.586,8.805 2.722,3.336 4.027,5.246 9.582,6.695 z"
                     style="fill:#2c5aa0;fill-opacity:1;fill-rule:nonzero;stroke:none"
                     id="path52"
                     inkscape:connector-curvature="0" /><g
                     id="g54"
                     transform="matrix(1,0,0,-1,0,842)"><path
                       d="m 289.066,103.504 c -15.117,0.316 -29.457,8.469 -38.089,20.812 -5.282,7.192 -11.391,14.657 -20.516,16.813 -16.961,6.254 -32.574,16.773 -43.09,31.664 -7.933,10.152 -14.207,21.5 -19.133,33.391 -2.187,2.91 -4.453,6.597 -6.672,11.269 -5.136,12.262 -2.664,13.957 -5.593,25.824 -3.09,7.672 -13.438,13.356 -8.067,16.246 3.532,2.082 6.485,0.407 9.578,-2.207 -1.441,7.879 -3.668,15.223 -2.773,22.204 -0.246,10.289 -0.199,18.515 1,29.222 -6.543,14.582 -7.746,17.61 -14.926,33.535 -4.73,10.926 -6.461,15.164 -10.738,23.395 -5.625,10.832 -6.352,13.105 -12.422,27.617 -3.406,8.512 -5.543,13.941 -5.52,18.352 0.317,4.23 1.145,6.504 3.336,11.25 3.719,-14.961 0.325,5.281 3.598,12.332 2.934,-18.192 7.086,-29.414 6.684,-23.457 -0.051,4.16 0.082,17.23 0.804,14.562 1.235,-3.211 3.496,-7.125 4.321,-10.609 1.183,-4.578 1.808,-7.781 3.332,-11.52 1.988,-5.719 2.23,2.735 0.488,10.309 2.035,-3.301 3.023,-4.094 5.652,-7.594 4.539,-5.726 11.242,-22.91 16.528,-33.738 5.472,-9.141 10.433,-17.172 14.82,-24.922 5.437,-8.625 6.859,-11.258 8.953,-19.32 1.27,-4.391 2.317,-5.496 4.785,0.203 3.196,6.179 8.071,-3.434 10.774,-10.539 7.117,-30.227 9.363,-35.778 17.09,-46.942 4.234,-3.695 12.714,-9.804 15.792,-13.492 2.196,-1 2.098,1.668 2.711,1.914 0.063,2.406 1.344,7.309 3.567,8.871 3.785,3.981 0.719,-4.179 2.902,-7.113 1.305,-2.496 3.699,-3.524 6.18,-4.723 5.59,-1.515 7.562,1.617 7.683,6.938 0.032,6.383 -0.414,7.461 4.809,8.414 1.395,-4.453 -0.68,-3.5 0.25,-9.645 -0.125,-4.16 -0.324,-6.324 -2.769,-8.621 -1.852,-1.949 -5.383,-2.097 -6.344,-2.394 1.672,-1.18 6.246,-5.543 9.226,-7.008 9.567,-6.883 12.637,-9.094 18.243,-16.254 4.308,-5.91 3.777,-14.641 2.125,-20.746 -1.684,-5.047 -5.231,-7.094 -9.422,-9.934 1.179,-5.148 3.132,-9.418 7.054,-13.496 3.961,-6.097 4.965,-9.867 4.879,-16.387 2.391,-9.855 2.297,-20.796 8.356,-29.355 6.179,-6.57 17.527,-7.059 21.082,-16.34 4.324,-6.984 -1.957,-13.812 -8.274,-16.371 -3.347,-1.609 -7.066,-2.457 -10.785,-2.414 -0.488,-0.004 -0.98,-0.008 -1.469,0 l 0,0.004 z"
                       style="fill:#2c5aa0;fill-opacity:1;fill-rule:nonzero;stroke:#ffffff;stroke-width:1.90813506;stroke-linecap:butt;stroke-linejoin:miter;stroke-miterlimit:4;stroke-dasharray:none;stroke-opacity:1"
                       id="path56"
                       inkscape:connector-curvature="0" /></g><path
                     d="m 263.477,707.469 c -3.266,-7.16 -0.165,-15.281 4.207,-20.555 4.668,-4.68 11.187,-10.816 16.949,-8.992 -1.367,1.988 -2.102,4.437 -2.356,7.336 0.114,2.582 1.231,5.969 5.481,10.238 3.445,2.445 7.383,4.395 7.148,7.832 0.121,5.297 1.93,4.227 4.293,6.188 3.258,2.996 1.543,8.343 -4.207,10.164 -15.398,2.929 -27.683,-2.582 -31.515,-12.211 z"
                     style="fill:#ffffff;fill-opacity:1;fill-rule:nonzero;stroke:none"
                     id="path58"
                     inkscape:connector-curvature="0" /><path
                     d="m 276.672,712.492 c -0.629,-1.488 0.422,-2.804 2.062,-3.457 2.02,-0.097 3.454,-0.246 4.575,1.508 1.246,1.582 1.359,4.422 -1.524,4.449 -2.242,-1.594 -4.453,-0.316 -5.113,-2.5 z"
                     style="fill:#2c5aa0;fill-opacity:1;fill-rule:nonzero;stroke:none"
                     id="path60"
                     inkscape:connector-curvature="0" /><path
                     d="m 283.094,712.32 c 0.121,-0.558 -0.418,-1.16 -1.207,-1.34 -0.789,-0.175 -1.528,0.137 -1.649,0.696 -0.121,0.562 0.418,1.164 1.207,1.34 0.789,0.179 1.528,-0.133 1.649,-0.696 z"
                     style="fill:#ffffff;fill-opacity:1;fill-rule:nonzero;stroke:none"
                     id="path62"
                     inkscape:connector-curvature="0" /><path
                     d="m 163.523,633.113 c -4.918,-10.621 -14.492,-40.004 -4.476,-34.929 9.91,5.015 16.332,13.152 26.449,26.82 10.117,13.668 17.551,29.625 7.938,16.644 -11.629,-15.707 -23.102,-29.074 -28.344,-34.75 -5.238,-5.671 -4.457,4.993 -0.067,16.957 2.559,6.981 6.668,14.84 9.641,22.508 3.215,8.282 -8.414,-5.558 -11.141,-13.25 z"
                     style="fill:#ffffff;fill-opacity:1;fill-rule:nonzero;stroke:none"
                     id="path64"
                     inkscape:connector-curvature="0" /><path
                     d="m 195.762,644.441 c -5.703,-8.16 -17.985,-31.32 -8.625,-28.531 9.261,2.754 15.925,8.625 26.543,18.578 10.617,9.953 18.187,21.907 7.726,10.77 -10.965,-11.676 -18.496,-17.996 -27.324,-23.149 -5.73,-3.347 -6.324,1.141 0.113,12.606 3.086,5.5 9.399,13.207 13.016,19.183 3.906,6.454 -8.043,-3.425 -11.449,-9.457 z"
                     style="fill:#ffffff;fill-opacity:1;fill-rule:nonzero;stroke:none"
                     id="path66"
                     inkscape:connector-curvature="0" /><path
                     d="m 225.91,650.297 c -5.176,-6.149 -17.664,-23.649 -9.937,-22.082 7.644,1.547 13.425,5.785 22.683,13.019 9.254,7.235 17.153,15.692 7.266,8.325 -11.231,-8.371 -18.848,-14.481 -25.516,-17.532 -4.871,-2.23 -0.922,6.071 2.512,11.633 2.676,4.332 5.547,7.461 11.937,13.645 4.375,4.238 -5.773,-2.407 -8.945,-7.008 z"
                     style="fill:#ffffff;fill-opacity:1;fill-rule:nonzero;stroke:none"
                     id="path68"
                     inkscape:connector-curvature="0" /><path
                     d="m 154.102,571.102 c 0.027,-13.207 -2.243,-40.907 1.574,-37.813 8.625,6.996 12.75,16.649 19.344,32.32 6.593,15.676 10.824,32.911 5.257,19.215 -2.914,-7.176 -11.191,-29.945 -21.039,-41.156 -5.097,-5.805 -2.5,9.785 -1.996,19.324 0.391,7.426 1.125,12.653 2.199,20.805 1.161,8.808 -4.515,-4.578 -5.339,-12.695 z"
                     style="fill:#ffffff;fill-opacity:1;fill-rule:nonzero;stroke:none"
                     id="path70"
                     inkscape:connector-curvature="0" /><path
                     d="m 183.414,593.965 c -4.473,-9.649 -13.168,-36.344 -4.07,-31.735 9.004,4.555 14.84,11.95 24.031,24.368 9.191,12.418 12.82,27.476 6.148,14.058 -7.925,-15.937 -17.085,-25.871 -26.328,-32.812 -6.394,-4.801 -3.031,7.265 0.641,18.629 2.074,6.425 6.996,12.562 9.699,19.531 2.918,7.523 -7.648,-5.051 -10.121,-12.039 z"
                     style="fill:#ffffff;fill-opacity:1;fill-rule:nonzero;stroke:none"
                     id="path72"
                     inkscape:connector-curvature="0" /><path
                     d="m 119.082,435.84 c 9.004,4.558 26.676,38.39 33.883,52.055 12.18,23.082 23.75,68.023 16.941,49.714 -9.168,-24.656 -14.765,-36.57 -24.687,-53.925 -4.317,-9.282 -18.223,-33.223 -26.137,-47.844 z"
                     style="fill:#ffffff;fill-opacity:1;fill-rule:nonzero;stroke:none"
                     id="path74"
                     inkscape:connector-curvature="0" /><path
                     d="m 227.895,620.469 c -11.024,-9.223 -37.278,-37.16 -23.957,-37.367 13.179,-0.207 24.414,5.265 42.578,14.855 18.168,9.59 31.5,26.191 15.64,13.672 -18.832,-14.871 -35.457,-21.344 -50.359,-23.988 -10.309,-1.829 0.902,11.175 12.039,23.086 6.301,6.742 15.719,11.23 23.07,18.234 7.942,7.566 -11.91,-1.313 -19.011,-8.492 z"
                     style="fill:#ffffff;fill-opacity:1;fill-rule:nonzero;stroke:none"
                     id="path76"
                     inkscape:connector-curvature="0" /><path
                     d="m 171.012,559.84 c -3.899,-7.176 -12.137,-27.145 -5.426,-23.949 6.641,3.164 11.305,8.582 18.719,17.703 7.414,9.117 11.172,20.422 5.429,10.461 -6.82,-11.832 -14.007,-19.067 -21.011,-24.032 -4.84,-3.429 -1.512,5.614 1.972,14.114 1.969,4.812 5.899,9.304 8.348,14.504 2.648,5.613 -5.734,-3.582 -8.031,-8.801 z"
                     style="fill:#ffffff;fill-opacity:1;fill-rule:nonzero;stroke:none"
                     id="path78"
                     inkscape:connector-curvature="0" /></g><g
                   id="g80"><g
                     id="g82"
                     clip-path="url(#clipPath84)"><g
                       id="g88"
                       clip-path="url(#clipPath90)"><g
                         id="g94"><g
                           id="g96"><g
                             id="g98"
                             clip-path="url(#clipPath100)"><g
                               id="g104"><path
                                 d="m 328.535,683.215 c -0.125,-0.59 -2.644,-3.02 -4.476,-4.656 -3.071,-3.422 -4.399,-7.379 -5.008,-11.782 -0.254,-3.695 0.328,-8.132 1.926,-10.472 2.179,-3.09 4.359,-5.117 8.14,-7.508 -0.465,2.996 -0.422,5.855 0.367,7.707 1.551,3.676 4.395,6.883 10.325,11.258 2.007,1.535 0.078,4.304 -1.266,6.468 -3.098,2.829 -4.574,5.024 -7.422,7.395 -0.75,0.648 -1.41,1.887 -2.586,1.59 z"
                                 style="fill:#bfc2c7;fill-opacity:1;fill-rule:nonzero;stroke:none"
                                 id="path106"
                                 inkscape:connector-curvature="0" /><path
                                 d="m 340.34,663.234 c -0.641,-1.75 -1.063,-4.644 -3.141,-7.336 -1.429,-1.742 -3.722,-2.601 -7.351,-3.796 0.382,-4.61 3.945,-5.934 8.964,-7.11 4.641,-0.363 9.192,0.16 10.969,5.141 1.184,3.972 -0.144,5.562 -1.34,7.441 -2.3,2.821 -3.406,4.434 -8.101,5.66 z"
                                 style="fill:#bfc2c7;fill-opacity:1;fill-rule:nonzero;stroke:none"
                                 id="path108"
                                 inkscape:connector-curvature="0" /><g
                                 id="g110"
                                 transform="matrix(-1,0,0,-1,0,842)"><path
                                   d="m -345.16,144.039 c -12.781,0.266 -24.902,7.16 -32.199,17.594 -4.465,6.082 -9.633,12.39 -17.348,14.215 -14.336,5.285 -27.535,14.179 -36.426,26.765 -6.707,8.582 -12.008,18.176 -16.172,28.227 -1.851,2.461 -3.765,5.578 -5.64,9.527 -4.344,10.367 -2.254,11.801 -4.727,21.832 -2.617,6.485 -11.363,11.289 -6.82,13.735 2.984,1.761 5.48,0.343 8.094,-1.868 -1.215,6.641 -3.098,12.344 -2.344,18.77 1.59,8.562 2.59,17.031 0.847,24.707 -5.535,12.328 -6.55,14.887 -12.621,28.348 -3.996,9.238 -5.461,12.82 -9.074,19.777 -4.758,9.156 -5.371,11.078 -10.504,23.348 -2.879,7.195 -4.683,11.785 -4.664,15.511 0.266,3.578 0.965,5.5 2.817,9.512 3.144,-12.648 0.277,4.465 3.043,10.426 2.48,-15.379 5.992,-24.863 5.652,-19.832 -0.043,3.519 0.066,14.566 0.68,12.312 1.043,-2.715 2.953,-6.023 3.652,-8.968 1,-3.872 1.527,-6.579 2.816,-9.739 1.68,-4.832 1.883,2.313 0.414,8.715 1.719,-2.789 2.555,-3.461 4.778,-6.422 3.836,-4.84 9.504,-19.367 13.968,-28.519 4.629,-7.727 8.821,-14.516 12.532,-21.067 4.597,-7.293 5.797,-9.519 7.566,-16.332 1.074,-3.715 1.957,-4.648 4.047,0.168 2.703,5.227 6.824,-2.902 9.105,-8.906 6.434,-3.512 9.422,-5.379 13.79,-11.172 7.812,-10.058 8.566,-15.668 10.222,-29.195 0.852,-4.492 1.188,-7.606 3.789,-10.723 1.856,-0.844 1.774,1.41 2.293,1.617 0.051,2.036 1.137,6.18 3.016,7.496 3.199,3.368 0.605,-3.531 2.449,-6.011 1.102,-2.11 3.129,-2.977 5.227,-3.992 4.726,-1.278 6.39,1.367 6.496,5.867 0.027,5.394 -0.352,6.308 4.062,7.113 1.18,-3.766 -0.57,-2.961 0.215,-8.156 -0.109,-3.516 -0.277,-5.344 -2.344,-7.285 -1.566,-1.649 -4.55,-1.774 -5.363,-2.024 1.414,-1 5.281,-4.687 7.801,-5.926 8.086,-5.82 10.683,-7.687 15.422,-13.742 3.644,-4.996 3.195,-12.375 1.797,-17.539 -1.422,-4.262 -4.422,-5.996 -7.965,-8.394 0.996,-4.356 2.648,-7.961 5.965,-11.411 3.347,-5.156 4.195,-8.339 4.125,-13.855 2.019,-8.328 1.937,-17.578 7.062,-24.813 5.223,-5.554 14.817,-5.968 17.82,-13.816 3.657,-5.902 -1.652,-11.676 -6.992,-13.836 -2.832,-1.363 -5.976,-2.078 -9.121,-2.039 -0.414,-0.008 -0.828,-0.012 -1.238,0 z"
                                   style="fill:#bfc2c7;fill-opacity:1;fill-rule:nonzero;stroke:#ffffff;stroke-width:1.90813506;stroke-linecap:butt;stroke-linejoin:miter;stroke-miterlimit:4;stroke-dasharray:none;stroke-opacity:1"
                                   id="path112"
                                   inkscape:connector-curvature="0" /></g><path
                                 d="m 366.793,671.73 c 2.762,-6.054 0.141,-12.918 -3.555,-17.375 -3.945,-3.957 -9.461,-9.144 -14.328,-7.601 1.156,1.68 1.774,3.75 1.988,6.199 -0.093,2.184 -1.039,5.047 -4.632,8.656 -2.911,2.067 -6.243,3.715 -6.039,6.621 -0.102,4.477 -1.633,3.575 -3.629,5.231 -2.758,2.531 -1.309,7.055 3.554,8.594 13.016,2.476 23.403,-2.184 26.641,-10.325 z"
                                 style="fill:#ffffff;fill-opacity:1;fill-rule:nonzero;stroke:none"
                                 id="path114"
                                 inkscape:connector-curvature="0" /><path
                                 d="m 355.641,675.98 c 0.531,-1.261 -0.36,-2.371 -1.743,-2.925 -1.71,-0.082 -2.921,-0.207 -3.871,1.277 -1.05,1.336 -1.148,3.734 1.289,3.762 1.899,-1.348 3.766,-0.27 4.325,-2.114 z"
                                 style="fill:#bfc2c7;fill-opacity:1;fill-rule:nonzero;stroke:none"
                                 id="path116"
                                 inkscape:connector-curvature="0" /><path
                                 d="m 350.211,675.832 c -0.106,-0.473 0.351,-0.98 1.019,-1.129 0.668,-0.152 1.29,0.109 1.395,0.586 0.102,0.477 -0.355,0.981 -1.02,1.133 -0.667,0.148 -1.293,-0.113 -1.394,-0.59 z"
                                 style="fill:#ffffff;fill-opacity:1;fill-rule:nonzero;stroke:none"
                                 id="path118"
                                 inkscape:connector-curvature="0" /><path
                                 d="m 448.297,613.941 c 4.156,-8.976 12.25,-33.816 3.781,-29.527 -8.375,4.238 -13.805,11.121 -22.355,22.676 -8.551,11.555 -14.836,25.043 -6.715,14.066 9.832,-13.277 19.531,-24.578 23.961,-29.375 4.433,-4.797 3.769,4.223 0.062,14.336 -2.168,5.903 -5.64,12.543 -8.152,19.028 -2.715,7 7.113,-4.7 9.418,-11.204 z"
                                 style="fill:#ffffff;fill-opacity:1;fill-rule:nonzero;stroke:none"
                                 id="path120"
                                 inkscape:connector-curvature="0" /><path
                                 d="m 421.965,621.906 c 4.82,-6.898 15.203,-26.476 7.289,-24.121 -7.828,2.332 -13.461,7.293 -22.438,15.707 -8.972,8.414 -15.371,18.52 -6.531,9.106 9.27,-9.871 15.637,-15.215 23.102,-19.571 4.843,-2.828 5.343,0.965 -0.098,10.657 -2.609,4.648 -7.945,11.164 -11.004,16.214 -3.301,5.457 6.801,-2.894 9.68,-7.992 z"
                                 style="fill:#ffffff;fill-opacity:1;fill-rule:nonzero;stroke:none"
                                 id="path122"
                                 inkscape:connector-curvature="0" /><path
                                 d="m 399.477,623.168 c 4.375,-5.199 14.929,-19.988 8.398,-18.668 -6.461,1.309 -11.352,4.891 -19.176,11.008 -7.824,6.117 -14.5,13.265 -6.14,7.035 9.492,-7.074 15.929,-12.238 21.566,-14.82 4.117,-1.883 0.781,5.132 -2.121,9.836 -2.262,3.66 -4.692,6.308 -10.094,11.535 -3.699,3.582 4.883,-2.035 7.567,-5.926 z"
                                 style="fill:#ffffff;fill-opacity:1;fill-rule:nonzero;stroke:none"
                                 id="path124"
                                 inkscape:connector-curvature="0" /><path
                                 d="m 459.258,556.449 c -0.024,-11.164 1.894,-34.578 -1.332,-31.965 -7.289,5.914 -10.778,14.075 -16.352,27.325 -5.574,13.25 -9.148,27.82 -4.445,16.242 2.465,-6.067 9.461,-25.317 17.785,-34.793 4.313,-4.906 2.113,8.273 1.688,16.34 -0.329,6.277 -0.95,10.691 -1.86,17.586 -0.98,7.445 3.817,-3.872 4.516,-10.735 z"
                                 style="fill:#ffffff;fill-opacity:1;fill-rule:nonzero;stroke:none"
                                 id="path126"
                                 inkscape:connector-curvature="0" /><path
                                 d="m 434.477,575.781 c 3.781,-8.16 11.132,-30.726 3.441,-26.832 -7.613,3.856 -12.543,10.106 -20.316,20.602 -7.77,10.5 -10.836,23.226 -5.196,11.883 6.696,-13.473 14.446,-21.872 22.258,-27.739 5.402,-4.058 2.559,6.145 -0.543,15.746 -1.754,5.438 -5.918,10.625 -8.199,16.516 -2.469,6.359 6.465,-4.269 8.555,-10.176 z"
                                 style="fill:#ffffff;fill-opacity:1;fill-rule:nonzero;stroke:none"
                                 id="path128"
                                 inkscape:connector-curvature="0" /><path
                                 d="m 488.859,442.105 c -7.609,3.852 -22.547,32.454 -28.64,44.004 -10.297,19.512 -20.078,57.508 -14.324,42.028 7.75,-20.844 12.484,-30.918 20.871,-45.586 3.648,-7.848 15.406,-28.09 22.093,-40.446 z"
                                 style="fill:#ffffff;fill-opacity:1;fill-rule:nonzero;stroke:none"
                                 id="path130"
                                 inkscape:connector-curvature="0" /></g></g></g></g></g></g></g><g
                   id="g132"><path
                     d="m 272.59,580.086 -27.121,3.676 -2.957,-13.813 12.144,-10.597 c 0,0 24.094,6.55 24.094,7.324 0,0.769 -6.16,13.41 -6.16,13.41 z"
                     style="fill:#2c5aa0;fill-opacity:1;fill-rule:nonzero;stroke:none"
                     id="path134"
                     inkscape:connector-curvature="0" /></g><g
                   id="g136"><g
                     id="g138"
                     clip-path="url(#clipPath140)"><g
                       id="g144"
                       clip-path="url(#clipPath146)"><g
                         id="g150"><g
                           id="g152"><g
                             id="g154"
                             clip-path="url(#clipPath156)"><g
                               id="g160"><g
                                 id="g162"
                                 transform="matrix(-1,0,0,-1,0,842)"><path
                                   d="m -389.797,267.922 c -18.058,3.176 -15.578,7.984 0.899,8.426 4.996,-1.008 9.933,-1.356 10.039,3.14 0.023,5.395 2.101,6.582 6.515,7.387 1.18,-3.766 -0.57,-2.961 0.215,-8.156 -0.109,-3.516 -0.277,-5.344 -2.344,-7.285 -1.566,-1.649 -4.55,-1.774 -5.363,-2.024 -5.367,-0.715 -5.625,-2.058 -9.961,-1.488 z"
                                   style="fill:#bfc2c7;fill-opacity:1;fill-rule:nonzero;stroke:#ffffff;stroke-width:1.90813506;stroke-linecap:butt;stroke-linejoin:miter;stroke-miterlimit:4;stroke-dasharray:none;stroke-opacity:1"
                                   id="path164"
                                   inkscape:connector-curvature="0" /></g></g></g></g></g></g></g></g><g
                   id="g166"><path
                     d="m 388.258,594.574 c 8.441,-6.469 28.543,-26.07 18.344,-26.215 -10.09,-0.144 -18.692,3.692 -32.598,10.422 -13.91,6.727 -24.117,18.379 -11.977,9.594 14.422,-10.434 27.149,-14.977 38.559,-16.832 7.891,-1.281 -0.691,7.84 -9.219,16.199 -4.824,4.731 -12.035,7.879 -17.664,12.793 -6.078,5.309 9.117,-0.922 14.555,-5.961 z"
                     style="fill:#ffffff;fill-opacity:1;fill-rule:nonzero;stroke:none"
                     id="path168"
                     inkscape:connector-curvature="0" /></g></g></g></g></g></g></g><g
       id="g170"><path
         d="m 232.223,493.163 c 0,1.008 -0.188,1.91 -0.563,2.703 -0.375,0.801 -0.906,1.442 -1.594,1.922 -0.687,0.488 -1.476,0.781 -2.359,0.875 -1.562,0 -2.875,-0.429 -3.937,-1.281 -1.055,-0.844 -1.641,-1.922 -1.766,-3.234 0,-1.032 0.223,-1.985 0.672,-2.86 0.445,-0.867 1.051,-1.554 1.812,-2.062 0.758,-0.5 1.598,-0.762 2.516,-0.782 0.863,0 1.687,0.211 2.469,0.641 0.789,0.426 1.437,1 1.937,1.719 0.5,0.726 0.77,1.515 0.813,2.359 z m -4.375,11.344 c 1.875,0 3.632,-0.481 5.281,-1.438 1.644,-0.949 2.969,-2.246 3.969,-3.89 1.007,-1.649 1.535,-3.449 1.578,-5.406 0,-1.469 -0.289,-2.883 -0.86,-4.235 -0.562,-1.344 -1.355,-2.543 -2.375,-3.594 -1.023,-1.043 -2.199,-1.855 -3.531,-2.437 -1.324,-0.57 -2.726,-0.859 -4.203,-0.859 l -0.062,0 c -1.219,0.031 -2.282,0.289 -3.188,0.765 -0.906,0.477 -1.543,0.879 -1.906,1.203 l 0,-7.812 -6.547,-0.61 0,27.672 6.062,0.578 0,-2.453 c 0.051,0.039 0.223,0.207 0.516,0.5 0.301,0.289 0.68,0.582 1.141,0.875 0.468,0.289 1.05,0.547 1.75,0.766 0.707,0.227 1.5,0.352 2.375,0.375 z m 31.59,-6.828 0,-14.125 -5.844,-0.672 0,1.734 c 0,-0.062 -0.227,-0.261 -0.672,-0.593 -0.438,-0.336 -1.016,-0.641 -1.734,-0.922 -0.719,-0.282 -1.54,-0.43 -2.454,-0.453 -1.031,0 -2.011,0.168 -2.937,0.5 -0.93,0.324 -1.75,0.796 -2.469,1.421 -0.711,0.625 -1.266,1.383 -1.672,2.282 -0.398,0.894 -0.594,1.879 -0.594,2.953 0,1.32 0.336,2.519 1.016,3.594 0.688,1.07 1.633,1.91 2.844,2.515 1.219,0.613 2.582,0.922 4.094,0.922 0.843,-0.043 1.586,-0.187 2.234,-0.437 0.645,-0.243 1.172,-0.508 1.578,-0.797 0.406,-0.293 0.594,-0.438 0.563,-0.438 0,0.844 -0.071,1.504 -0.203,1.985 -0.219,0.75 -0.626,1.3 -1.219,1.656 -0.586,0.363 -1.528,0.547 -2.828,0.547 -0.625,0 -1.356,-0.125 -2.188,-0.375 -0.824,-0.25 -1.59,-0.528 -2.297,-0.828 -0.711,-0.305 -1.09,-0.481 -1.14,-0.532 l 1.172,5.766 c 0.082,0.039 0.519,0.148 1.312,0.328 0.801,0.176 1.656,0.332 2.562,0.469 0.907,0.144 1.723,0.234 2.454,0.265 1.519,0 2.914,-0.234 4.187,-0.703 1.27,-0.468 2.289,-1.215 3.063,-2.234 0.781,-1.012 1.172,-2.289 1.172,-3.828 z m -6.11,-7.813 c 0,0.782 -0.308,1.43 -0.922,1.953 -0.617,0.52 -1.371,0.782 -2.265,0.782 -0.805,-0.043 -1.496,-0.293 -2.079,-0.75 -0.585,-0.461 -0.89,-1.059 -0.921,-1.797 0,-0.813 0.285,-1.469 0.859,-1.969 0.582,-0.5 1.359,-0.75 2.328,-0.75 0.844,0 1.551,0.211 2.125,0.641 0.582,0.425 0.875,1.054 0.875,1.89 z m 11.008,-6.984 0,27.937 6.5,0.641 0,-27.969 -6.5,-0.609 z m 29.523,14.797 0,-14.125 -5.843,-0.672 0,1.734 c 0,-0.062 -0.227,-0.261 -0.672,-0.593 -0.438,-0.336 -1.016,-0.641 -1.735,-0.922 -0.718,-0.282 -1.539,-0.43 -2.453,-0.453 -1.031,0 -2.011,0.168 -2.937,0.5 -0.93,0.324 -1.75,0.796 -2.469,1.421 -0.711,0.625 -1.266,1.383 -1.672,2.282 -0.398,0.894 -0.594,1.879 -0.594,2.953 0,1.32 0.336,2.519 1.016,3.594 0.688,1.07 1.633,1.91 2.844,2.515 1.218,0.613 2.582,0.922 4.094,0.922 0.843,-0.043 1.585,-0.187 2.234,-0.437 0.644,-0.243 1.172,-0.508 1.578,-0.797 0.406,-0.293 0.594,-0.438 0.562,-0.438 0,0.844 -0.07,1.504 -0.203,1.985 -0.218,0.75 -0.625,1.3 -1.218,1.656 -0.586,0.363 -1.528,0.547 -2.829,0.547 -0.624,0 -1.355,-0.125 -2.187,-0.375 -0.824,-0.25 -1.59,-0.528 -2.297,-0.828 -0.711,-0.305 -1.09,-0.481 -1.14,-0.532 l 1.171,5.766 c 0.082,0.039 0.52,0.148 1.313,0.328 0.801,0.176 1.656,0.332 2.562,0.469 0.907,0.144 1.723,0.234 2.454,0.265 1.519,0 2.914,-0.234 4.187,-0.703 1.27,-0.468 2.289,-1.215 3.063,-2.234 0.781,-1.012 1.171,-2.289 1.171,-3.828 z m -6.109,-7.813 c 0,0.782 -0.309,1.43 -0.922,1.953 -0.617,0.52 -1.371,0.782 -2.266,0.782 -0.804,-0.043 -1.496,-0.293 -2.078,-0.75 -0.586,-0.461 -0.89,-1.059 -0.922,-1.797 0,-0.813 0.286,-1.469 0.86,-1.969 0.582,-0.5 1.359,-0.75 2.328,-0.75 0.844,0 1.551,0.211 2.125,0.641 0.582,0.425 0.875,1.054 0.875,1.89 z m 18.699,-8.453 -10.469,21.781 6.422,1.172 4.11,-9.531 4.047,9.531 6.234,-1.172 -10.344,-21.781 z m 29.465,16.266 0,-14.125 -5.844,-0.672 0,1.734 c 0,-0.062 -0.226,-0.261 -0.672,-0.593 -0.437,-0.336 -1.015,-0.641 -1.734,-0.922 -0.719,-0.282 -1.539,-0.43 -2.453,-0.453 -1.031,0 -2.012,0.168 -2.938,0.5 -0.929,0.324 -1.75,0.796 -2.468,1.421 -0.711,0.625 -1.266,1.383 -1.672,2.282 -0.399,0.894 -0.594,1.879 -0.594,2.953 0,1.32 0.336,2.519 1.016,3.594 0.687,1.07 1.633,1.91 2.843,2.515 1.219,0.613 2.582,0.922 4.094,0.922 0.844,-0.043 1.586,-0.187 2.235,-0.437 0.644,-0.243 1.171,-0.508 1.578,-0.797 0.406,-0.293 0.593,-0.438 0.562,-0.438 0,0.844 -0.07,1.504 -0.203,1.985 -0.219,0.75 -0.625,1.3 -1.219,1.656 -0.586,0.363 -1.527,0.547 -2.828,0.547 -0.625,0 -1.355,-0.125 -2.187,-0.375 -0.825,-0.25 -1.59,-0.528 -2.297,-0.828 -0.711,-0.305 -1.09,-0.481 -1.141,-0.532 l 1.172,5.766 c 0.082,0.039 0.52,0.148 1.313,0.328 0.8,0.176 1.656,0.332 2.562,0.469 0.906,0.144 1.723,0.234 2.453,0.265 1.52,0 2.914,-0.234 4.188,-0.703 1.269,-0.468 2.289,-1.215 3.062,-2.234 0.781,-1.012 1.172,-2.289 1.172,-3.828 z m -6.109,-7.813 c 0,0.782 -0.309,1.43 -0.922,1.953 -0.617,0.52 -1.371,0.782 -2.266,0.782 -0.805,-0.043 -1.496,-0.293 -2.078,-0.75 -0.586,-0.461 -0.891,-1.059 -0.922,-1.797 0,-0.813 0.285,-1.469 0.86,-1.969 0.582,-0.5 1.359,-0.75 2.328,-0.75 0.843,0 1.55,0.211 2.125,0.641 0.582,0.425 0.875,1.054 0.875,1.89 z"
         style="fill:#2c5aa0;fill-opacity:1;fill-rule:nonzero;stroke:none"
         id="path172"
         inkscape:connector-curvature="0" /><path
         d="m 349.445,497.042 0,-5.781 c 0,-0.918 0.098,-1.559 0.297,-1.922 0.207,-0.355 0.57,-0.664 1.094,-0.922 0.344,-0.148 0.922,-0.262 1.734,-0.344 0.52,0.032 1.008,0.082 1.469,0.157 0.469,0.082 0.805,0.144 1.016,0.187 l -1.86,-6.391 c -0.093,0 -0.265,-0.003 -0.515,-0.015 -0.242,-0.008 -0.532,-0.016 -0.875,-0.016 -2.137,0 -3.883,0.422 -5.235,1.266 -2.398,1.363 -3.593,3.523 -3.593,6.484 l 0,7.297 -3.438,0 1.625,5.703 2,0 0,3.969 6.281,2.578 0,-6.547 4.157,0 0,-5.703 -4.157,0 z m 17.196,-16.406 -10.469,21.781 6.422,1.172 4.109,-9.531 4.047,9.531 6.234,-1.172 -10.343,-21.781 z"
         style="fill:#bfc2c7;fill-opacity:1;fill-rule:nonzero;stroke:none"
         id="path174"
         inkscape:connector-curvature="0" /><g
         id="g176"
         transform="matrix(1,0,0,-1,0,841.88977)"><path
           d="m 343.879,356.656 c 0,-1.054 -0.418,-1.937 -1.258,-2.648 -0.836,-0.707 -1.871,-1.063 -3.101,-1.063 -1.094,0.047 -2.036,0.387 -2.829,1.02 -0.793,0.625 -1.211,1.445 -1.257,2.457 0,1.101 0.394,1.996 1.179,2.68 0.793,0.687 1.852,1.031 3.18,1.031 1.148,0 2.113,-0.289 2.898,-0.871 0.793,-0.59 1.188,-1.457 1.188,-2.606"
           style="fill:#bfc2c7;fill-opacity:1;fill-rule:nonzero;stroke:#ffffff;stroke-width:0.80000001;stroke-linecap:butt;stroke-linejoin:miter;stroke-miterlimit:4;stroke-dasharray:none;stroke-opacity:1"
           id="path178"
           inkscape:connector-curvature="0" /></g></g></g></svg>